<mxfile host="app.diagrams.net" agent="Mozilla/5.0 (X11; Ubuntu; Linux x86_64; rv:132.0) Gecko/20100101 Firefox/132.0" version="24.8.3">
  <diagram name="Page-1" id="m_p_Zxi98jw82JD-ihEY">
    <mxGraphModel dx="1364" dy="758" grid="1" gridSize="10" guides="1" tooltips="1" connect="1" arrows="1" fold="1" page="1" pageScale="1" pageWidth="850" pageHeight="1100" math="0" shadow="0">
      <root>
        <mxCell id="0" />
        <mxCell id="1" parent="0" />
        <mxCell id="LPaYy3UCM_7v4Dlni08d-1" value="" style="ellipse;whiteSpace=wrap;html=1;fillColor=#ffe6cc;strokeColor=#d79b00;" vertex="1" parent="1">
          <mxGeometry x="100" y="170" width="340" height="150" as="geometry" />
        </mxCell>
        <mxCell id="LPaYy3UCM_7v4Dlni08d-2" value="M (Message Space)" style="text;html=1;align=center;verticalAlign=middle;whiteSpace=wrap;rounded=0;" vertex="1" parent="1">
          <mxGeometry x="205" y="130" width="130" height="30" as="geometry" />
        </mxCell>
        <mxCell id="LPaYy3UCM_7v4Dlni08d-3" value="" style="ellipse;whiteSpace=wrap;html=1;fillColor=#d5e8d4;strokeColor=#82b366;" vertex="1" parent="1">
          <mxGeometry x="190" y="390" width="120" height="80" as="geometry" />
        </mxCell>
        <mxCell id="LPaYy3UCM_7v4Dlni08d-4" value="T (Tag Space)" style="text;html=1;align=center;verticalAlign=middle;whiteSpace=wrap;rounded=0;" vertex="1" parent="1">
          <mxGeometry x="200" y="480" width="90" height="30" as="geometry" />
        </mxCell>
        <mxCell id="LPaYy3UCM_7v4Dlni08d-5" value="" style="shape=waypoint;sketch=0;fillStyle=solid;size=6;pointerEvents=1;points=[];fillColor=none;resizable=0;rotatable=0;perimeter=centerPerimeter;snapToPoint=1;" vertex="1" parent="1">
          <mxGeometry x="190" y="220" width="20" height="20" as="geometry" />
        </mxCell>
        <mxCell id="LPaYy3UCM_7v4Dlni08d-6" value="" style="shape=waypoint;sketch=0;fillStyle=solid;size=6;pointerEvents=1;points=[];fillColor=none;resizable=0;rotatable=0;perimeter=centerPerimeter;snapToPoint=1;" vertex="1" parent="1">
          <mxGeometry x="335" y="220" width="20" height="20" as="geometry" />
        </mxCell>
        <mxCell id="LPaYy3UCM_7v4Dlni08d-7" value="" style="shape=waypoint;sketch=0;fillStyle=solid;size=6;pointerEvents=1;points=[];fillColor=none;resizable=0;rotatable=0;perimeter=centerPerimeter;snapToPoint=1;" vertex="1" parent="1">
          <mxGeometry x="240" y="420" width="20" height="20" as="geometry" />
        </mxCell>
        <mxCell id="LPaYy3UCM_7v4Dlni08d-8" value="Message space is always much larger than tag space. There must be collision. However, collision resistance means to find an efficient algorithm that can do so" style="rounded=1;whiteSpace=wrap;html=1;dashed=1;fillColor=#dae8fc;strokeColor=#6c8ebf;" vertex="1" parent="1">
          <mxGeometry x="550" y="290" width="240" height="90" as="geometry" />
        </mxCell>
        <mxCell id="LPaYy3UCM_7v4Dlni08d-10" value="" style="endArrow=classic;html=1;rounded=0;entryX=1;entryY=0.5;entryDx=0;entryDy=0;exitX=0;exitY=0.5;exitDx=0;exitDy=0;fillColor=#dae8fc;strokeColor=#6c8ebf;dashed=1;" edge="1" parent="1" source="LPaYy3UCM_7v4Dlni08d-8" target="LPaYy3UCM_7v4Dlni08d-1">
          <mxGeometry width="50" height="50" relative="1" as="geometry">
            <mxPoint x="400" y="420" as="sourcePoint" />
            <mxPoint x="450" y="370" as="targetPoint" />
          </mxGeometry>
        </mxCell>
        <mxCell id="LPaYy3UCM_7v4Dlni08d-11" value="" style="endArrow=classic;html=1;rounded=0;entryX=1;entryY=0.5;entryDx=0;entryDy=0;dashed=1;fillColor=#dae8fc;strokeColor=#6c8ebf;" edge="1" parent="1" target="LPaYy3UCM_7v4Dlni08d-3">
          <mxGeometry width="50" height="50" relative="1" as="geometry">
            <mxPoint x="550" y="340" as="sourcePoint" />
            <mxPoint x="450" y="370" as="targetPoint" />
          </mxGeometry>
        </mxCell>
      </root>
    </mxGraphModel>
  </diagram>
</mxfile>
